<svg xmlns="http://www.w3.org/2000/svg" viewBox="0 0 32 32" id="QrCode">
  <path d="M12.5 2h-8C3.1 2 2 3.1 2 4.5v8C2 13.9 3.1 15 4.5 15h8c1.4 0 2.5-1.1 2.5-2.5v-8C15 3.1 13.9 2 12.5 2zm.5 10.5c0 .3-.2.5-.5.5h-8c-.3 0-.5-.2-.5-.5v-8c0-.3.2-.5.5-.5h8c.3 0 .5.2.5.5v8z" fill="#595bd4" class="color000000 svgShape"></path>
  <path d="M10 6H7c-.6 0-1 .4-1 1v3c0 .6.4 1 1 1h3c.6 0 1-.4 1-1V7c0-.6-.4-1-1-1zM9 9H8V8h1v1zm18.5-7h-8C18.1 2 17 3.1 17 4.5v8c0 1.4 1.1 2.5 2.5 2.5h8c1.4 0 2.5-1.1 2.5-2.5v-8C30 3.1 28.9 2 27.5 2zm.5 10.5c0 .3-.2.5-.5.5h-8c-.3 0-.5-.2-.5-.5v-8c0-.3.2-.5.5-.5h8c.3 0 .5.2.5.5v8z" fill="#595bd4" class="color000000 svgShape"></path>
  <path d="M25 6h-3c-.6 0-1 .4-1 1v3c0 .6.4 1 1 1h3c.6 0 1-.4 1-1V7c0-.6-.4-1-1-1zm-1 3h-1V8h1v1zM2 27.5C2 28.9 3.1 30 4.5 30h8c1.4 0 2.5-1.1 2.5-2.5v-8c0-1.4-1.1-2.5-2.5-2.5h-8C3.1 17 2 18.1 2 19.5v8zm2-8c0-.3.2-.5.5-.5h8c.3 0 .5.2.5.5v8c0 .3-.2.5-.5.5h-8c-.3 0-.5-.2-.5-.5v-8z" fill="#595bd4" class="color000000 svgShape"></path>
  <path d="M7 26h3c.6 0 1-.4 1-1v-3c0-.6-.4-1-1-1H7c-.6 0-1 .4-1 1v3c0 .6.4 1 1 1zm1-3h1v1H8v-1zm19.5-6h-8c-1.4 0-2.5 1.1-2.5 2.5v8c0 1.4 1.1 2.5 2.5 2.5h8c1.4 0 2.5-1.1 2.5-2.5v-8c0-1.4-1.1-2.5-2.5-2.5zm.5 10.5c0 .3-.2.5-.5.5h-8c-.3 0-.5-.2-.5-.5v-8c0-.3.2-.5.5-.5h8c.3 0 .5.2.5.5v8z" fill="#595bd4" class="color000000 svgShape"></path>
  <path d="M25 21h-3c-.6 0-1 .4-1 1v3c0 .6.4 1 1 1h3c.6 0 1-.4 1-1v-3c0-.6-.4-1-1-1zm-1 3h-1v-1h1v1z" fill="#595bd4" class="color000000 svgShape"></path>
</svg>
